# xmcd
#
# Track frame offsets: 
#        150
#        11220
#        23502
#        37012
#        49627
#        63880
#        78270
#        89805
#        103065
#        113440
#        128312
#        141717
#        154057
#        167102
#        180770
#        194822
#
# Disc length: 2768 seconds
#
# Revision: 2
# Processed by: cddbd v1.5.2PL0 Copyright (c) Steve Scherf et al.
# Submitted via: ExactAudioCopy v1.0b1
#
DISCID=ce0ace10
DTITLE=Hadda Brooks - Jump Back Honey
DYEAR=1997
DGENRE=R&B
TTITLE0=Jump Back Honey
TTITLE1=Dreamin' and Cryin'
TTITLE2=My Song
TTITLE3=If You Love Me (Really Love Me)
TTITLE4=I'm Still In Love
TTITLE5=I Don't Mind
TTITLE6=You Let My Love Get Cold
TTITLE7=All Night Long
TTITLE8=Time Was When
TTITLE9=Trust In Me
TTITLE10=Remember
TTITLE11=When I Leave The World Behind
TTITLE12=Somewhere In That Direction
TTITLE13=I Went To Your Wedding
TTITLE14=He's Coming Home
TTITLE15=Brooks Boogie
EXTD=\n\n
EXTT0=
EXTT1=
EXTT2=
EXTT3=
EXTT4=
EXTT5=
EXTT6=
EXTT7=
EXTT8=
EXTT9=
EXTT10=
EXTT11=
EXTT12=
EXTT13=
EXTT14=
EXTT15=
PLAYORDER=
